<svg width="56" height="57" viewBox="0 0 56 57" fill="none" xmlns="http://www.w3.org/2000/svg">
<path d="M28.134 3.56344C33.229 3.63458 37.365 7.83565 37.3645 12.9355C37.364 17.0156 34.7578 20.4859 31.1213 21.7724V22.3066H36.1936C36.84 22.3066 37.3645 22.8315 37.3645 23.4785V27.3828C37.3645 28.0297 36.84 28.5546 36.1936 28.5546H31.1213V47.1054C36.8913 46.3804 43.1997 43.2294 45.1789 37.9267H41.7512C40.7084 37.9267 40.1856 36.6648 40.9231 35.9267L47.4611 29.3828C47.9182 28.9254 48.6593 28.9256 49.1164 29.3828L55.6555 35.9267C56.3926 36.6647 55.8701 37.9267 54.8274 37.9267H51.6672C49.5425 47.945 38.3621 53.5468 28.0002 53.5468C17.6552 53.5468 6.46037 47.9563 4.33321 37.9267H1.17305C0.13032 37.9267 -0.392171 36.6647 0.34493 35.9267L6.88399 29.3828C7.34121 28.9257 8.08231 28.9254 8.53927 29.3828L15.0774 35.9267C15.8147 36.6647 15.292 37.9267 14.2492 37.9267H10.8215C12.8014 43.2313 19.1304 46.3831 24.8791 47.1054V28.5546H19.8068C19.1604 28.5546 18.6359 28.0297 18.6359 27.3828V23.4785C18.6359 22.8315 19.1604 22.3066 19.8068 22.3066H24.8791V21.7724C21.2423 20.4857 18.636 17.0151 18.6359 12.9345C18.6359 7.71399 22.9011 3.49031 28.134 3.56344ZM28.0002 9.81051C26.2791 9.81051 24.8791 11.2119 24.8791 12.9345C24.8791 14.6571 26.2791 16.0585 28.0002 16.0586C29.7213 16.0586 31.1213 14.6571 31.1213 12.9345C31.1213 11.2119 29.7213 9.81051 28.0002 9.81051Z" fill="#304859"/>
<mask id="mask0_18106_370" style="mask-type:luminance" maskUnits="userSpaceOnUse" x="0" y="3" width="57" height="51">
<path d="M28.134 3.56344C33.229 3.63458 37.365 7.83565 37.3645 12.9355C37.364 17.0156 34.7578 20.4859 31.1213 21.7724V22.3066H36.1936C36.84 22.3066 37.3645 22.8315 37.3645 23.4785V27.3828C37.3645 28.0297 36.84 28.5546 36.1936 28.5546H31.1213V47.1054C36.8913 46.3804 43.1997 43.2294 45.1789 37.9267H41.7512C40.7084 37.9267 40.1856 36.6648 40.9231 35.9267L47.4611 29.3828C47.9182 28.9254 48.6593 28.9256 49.1164 29.3828L55.6555 35.9267C56.3926 36.6647 55.8701 37.9267 54.8274 37.9267H51.6672C49.5425 47.945 38.3621 53.5468 28.0002 53.5468C17.6552 53.5468 6.46037 47.9563 4.33321 37.9267H1.17305C0.13032 37.9267 -0.392171 36.6647 0.34493 35.9267L6.88399 29.3828C7.34121 28.9257 8.08231 28.9254 8.53927 29.3828L15.0774 35.9267C15.8147 36.6647 15.292 37.9267 14.2492 37.9267H10.8215C12.8014 43.2313 19.1304 46.3831 24.8791 47.1054V28.5546H19.8068C19.1604 28.5546 18.6359 28.0297 18.6359 27.3828V23.4785C18.6359 22.8315 19.1604 22.3066 19.8068 22.3066H24.8791V21.7724C21.2423 20.4857 18.636 17.0151 18.6359 12.9345C18.6359 7.71399 22.9011 3.49031 28.134 3.56344ZM28.0002 9.81051C26.2791 9.81051 24.8791 11.2119 24.8791 12.9345C24.8791 14.6571 26.2791 16.0585 28.0002 16.0586C29.7213 16.0586 31.1213 14.6571 31.1213 12.9345C31.1213 11.2119 29.7213 9.81051 28.0002 9.81051Z" fill="white"/>
</mask>
<g mask="url(#mask0_18106_370)">
<rect y="0.5" width="56" height="56" fill="#304859"/>
</g>
</svg>
