<svg width="56" height="57" viewBox="0 0 56 57" fill="none" xmlns="http://www.w3.org/2000/svg">
<path d="M46.5253 12.0254C47.8923 10.6585 50.1085 10.6585 51.4755 12.0254C52.8417 13.3921 52.8417 15.6078 51.4755 16.9746L46.3749 22.0752V28.5H52.4999C54.4656 28.5 56.0532 30.1207 55.9989 32.0986C55.9465 34.0049 54.3345 35.4999 52.4276 35.5H46.3749V37.25C46.3749 39.6413 45.8411 41.9074 44.8876 43.9375L51.4755 50.5254C52.8418 51.8922 52.8418 54.1078 51.4755 55.4746C50.1085 56.8415 47.8921 56.8414 46.5253 55.4746L40.539 49.4883C37.8319 51.6838 34.382 53 30.6249 53V26.3125C30.6249 25.5877 30.0372 25 29.3124 25H26.6874C25.9627 25.0002 25.3749 25.5878 25.3749 26.3125V53C21.6179 52.9999 18.1688 51.6837 15.4618 49.4883L9.47548 55.4746C8.10851 56.8415 5.89214 56.8414 4.52528 55.4746C3.1587 54.1078 3.15866 51.8922 4.52528 50.5254L11.1122 43.9375C10.1588 41.9075 9.62489 39.6412 9.62489 37.25V35.5H3.57313C1.66614 35.5 0.0542335 34.0049 0.0018443 32.0986C-0.0525125 30.1208 1.53433 28.5002 3.49989 28.5H9.62489V22.0752L4.52528 16.9746C3.15866 15.6078 3.1587 13.3922 4.52528 12.0254C5.89225 10.6585 8.10851 10.6585 9.47548 12.0254L15.4501 18H40.5507L46.5253 12.0254ZM28.1093 0.5C34.8748 0.5 40.3593 5.9845 40.3593 12.75H15.8593C15.8593 5.98459 21.3439 0.50015 28.1093 0.5Z" fill="#304859"/>
<mask id="mask0_18106_447" style="mask-type:luminance" maskUnits="userSpaceOnUse" x="0" y="0" width="57" height="57">
<path d="M46.5253 12.0254C47.8923 10.6585 50.1085 10.6585 51.4755 12.0254C52.8417 13.3921 52.8417 15.6078 51.4755 16.9746L46.3749 22.0752V28.5H52.4999C54.4656 28.5 56.0532 30.1207 55.9989 32.0986C55.9465 34.0049 54.3345 35.4999 52.4276 35.5H46.3749V37.25C46.3749 39.6413 45.8411 41.9074 44.8876 43.9375L51.4755 50.5254C52.8418 51.8922 52.8418 54.1078 51.4755 55.4746C50.1085 56.8415 47.8921 56.8414 46.5253 55.4746L40.539 49.4883C37.8319 51.6838 34.382 53 30.6249 53V26.3125C30.6249 25.5877 30.0372 25 29.3124 25H26.6874C25.9627 25.0002 25.3749 25.5878 25.3749 26.3125V53C21.6179 52.9999 18.1688 51.6837 15.4618 49.4883L9.47548 55.4746C8.10851 56.8415 5.89214 56.8414 4.52528 55.4746C3.1587 54.1078 3.15866 51.8922 4.52528 50.5254L11.1122 43.9375C10.1588 41.9075 9.62489 39.6412 9.62489 37.25V35.5H3.57313C1.66614 35.5 0.0542335 34.0049 0.0018443 32.0986C-0.0525125 30.1208 1.53433 28.5002 3.49989 28.5H9.62489V22.0752L4.52528 16.9746C3.15866 15.6078 3.1587 13.3922 4.52528 12.0254C5.89225 10.6585 8.10851 10.6585 9.47548 12.0254L15.4501 18H40.5507L46.5253 12.0254ZM28.1093 0.5C34.8748 0.5 40.3593 5.9845 40.3593 12.75H15.8593C15.8593 5.98459 21.3439 0.50015 28.1093 0.5Z" fill="white"/>
</mask>
<g mask="url(#mask0_18106_447)">
<rect y="0.5" width="56" height="56" fill="#304859"/>
</g>
</svg>
