<svg width="56" height="57" viewBox="0 0 56 57" fill="none" xmlns="http://www.w3.org/2000/svg">
<path d="M34.7236 7.5C37.5869 7.50003 40.3448 8.36219 42.6982 9.99316C45.0514 11.6241 46.8267 13.9031 47.832 16.584L48.6914 18.875H54.6865C55.5824 18.875 56.2149 19.7526 55.9316 20.6025L55.0566 23.2275C54.878 23.7635 54.3764 24.125 53.8115 24.125H50.6601L50.666 24.1406C52.804 25.3387 54.25 27.6249 54.25 30.25V35.5C54.25 37.2745 53.5884 38.8941 52.5 40.1279V46.875C52.5 48.3248 51.3248 49.5 49.875 49.5H44.625C43.1752 49.5 42 48.3248 42 46.875V42.5H14V46.875C14 48.3248 12.8248 49.5 11.375 49.5H6.12499C4.67522 49.5 3.49999 48.3248 3.49999 46.875V40.1279C2.4116 38.8942 1.74999 37.2746 1.74999 35.5V30.25C1.74999 27.6249 3.19595 25.3387 5.33397 24.1406L5.33983 24.125H2.18847C1.62354 24.125 1.122 23.7635 0.943348 23.2275L0.0683479 20.6025C-0.214904 19.7526 0.41759 18.875 1.31346 18.875H7.30858L8.16796 16.584C9.1733 13.9031 10.9485 11.6241 13.3017 9.99316C15.6551 8.3623 18.413 7.50003 21.2764 7.5H34.7236ZM9.62499 29.375C7.692 29.375 6.12499 30.942 6.12499 32.875C6.12499 34.808 7.692 36.375 9.62499 36.375C11.558 36.375 14.875 36.558 14.875 34.625C14.875 32.692 11.558 29.375 9.62499 29.375ZM46.375 29.375C44.442 29.375 41.125 32.692 41.125 34.625C41.125 36.558 44.442 36.375 46.375 36.375C48.308 36.375 49.875 34.808 49.875 32.875C49.875 30.942 48.308 29.375 46.375 29.375ZM21.2764 14.5C18.375 14.5001 15.7415 16.3254 14.7226 19.042L13.1445 23.25H42.8555L41.2773 19.042C40.2584 16.3254 37.625 14.5001 34.7236 14.5H21.2764Z" fill="#304859"/>
<mask id="mask0_18106_424" style="mask-type:luminance" maskUnits="userSpaceOnUse" x="0" y="7" width="56" height="43">
<path d="M34.7236 7.5C37.5869 7.50003 40.3448 8.36219 42.6982 9.99316C45.0514 11.6241 46.8267 13.9031 47.832 16.584L48.6914 18.875H54.6865C55.5824 18.875 56.2149 19.7526 55.9316 20.6025L55.0566 23.2275C54.878 23.7635 54.3764 24.125 53.8115 24.125H50.6601L50.666 24.1406C52.804 25.3387 54.25 27.6249 54.25 30.25V35.5C54.25 37.2745 53.5884 38.8941 52.5 40.1279V46.875C52.5 48.3248 51.3248 49.5 49.875 49.5H44.625C43.1752 49.5 42 48.3248 42 46.875V42.5H14V46.875C14 48.3248 12.8248 49.5 11.375 49.5H6.12499C4.67522 49.5 3.49999 48.3248 3.49999 46.875V40.1279C2.4116 38.8942 1.74999 37.2746 1.74999 35.5V30.25C1.74999 27.6249 3.19595 25.3387 5.33397 24.1406L5.33983 24.125H2.18847C1.62354 24.125 1.122 23.7635 0.943348 23.2275L0.0683479 20.6025C-0.214904 19.7526 0.41759 18.875 1.31346 18.875H7.30858L8.16796 16.584C9.1733 13.9031 10.9485 11.6241 13.3017 9.99316C15.6551 8.3623 18.413 7.50003 21.2764 7.5H34.7236ZM9.62499 29.375C7.692 29.375 6.12499 30.942 6.12499 32.875C6.12499 34.808 7.692 36.375 9.62499 36.375C11.558 36.375 14.875 36.558 14.875 34.625C14.875 32.692 11.558 29.375 9.62499 29.375ZM46.375 29.375C44.442 29.375 41.125 32.692 41.125 34.625C41.125 36.558 44.442 36.375 46.375 36.375C48.308 36.375 49.875 34.808 49.875 32.875C49.875 30.942 48.308 29.375 46.375 29.375ZM21.2764 14.5C18.375 14.5001 15.7415 16.3254 14.7226 19.042L13.1445 23.25H42.8555L41.2773 19.042C40.2584 16.3254 37.625 14.5001 34.7236 14.5H21.2764Z" fill="white"/>
</mask>
<g mask="url(#mask0_18106_424)">
<rect y="0.5" width="56" height="56" fill="#304859"/>
</g>
</svg>
