<svg width="56" height="57" viewBox="0 0 56 57" fill="none" xmlns="http://www.w3.org/2000/svg">
<path d="M39.374 0.5C40.8285 0.500204 41.999 1.67044 41.999 3.125V4.875C41.999 6.32956 40.8285 7.4998 39.374 7.5H38.499V24.0156L51.3174 44.6328C54.522 49.7734 50.8362 56.4999 44.7441 56.5H11.2529C5.17192 56.4997 1.47514 49.7842 4.67965 44.6328L17.499 24.0156V7.5H16.624C15.1693 7.5 13.999 6.32969 13.999 4.875V3.125C13.999 1.67031 15.1693 0.5 16.624 0.5H39.374ZM24.4882 7.5V25C24.4882 25.7437 24.2582 26.4439 23.8535 27.0127L18.582 35.5H37.3945L32.122 27.0127C31.7283 26.444 31.4882 25.7547 31.4882 25V7.5H24.4882Z" fill="#304859"/>
<mask id="mask0_18106_379" style="mask-type:luminance" maskUnits="userSpaceOnUse" x="3" y="0" width="50" height="57">
<path d="M39.374 0.5C40.8285 0.500204 41.999 1.67044 41.999 3.125V4.875C41.999 6.32956 40.8285 7.4998 39.374 7.5H38.499V24.0156L51.3174 44.6328C54.522 49.7734 50.8362 56.4999 44.7441 56.5H11.2529C5.17192 56.4997 1.47514 49.7842 4.67965 44.6328L17.499 24.0156V7.5H16.624C15.1693 7.5 13.999 6.32969 13.999 4.875V3.125C13.999 1.67031 15.1693 0.5 16.624 0.5H39.374ZM24.4882 7.5V25C24.4882 25.7437 24.2582 26.4439 23.8535 27.0127L18.582 35.5H37.3945L32.122 27.0127C31.7283 26.444 31.4882 25.7547 31.4882 25V7.5H24.4882Z" fill="white"/>
</mask>
<g mask="url(#mask0_18106_379)">
<rect y="0.5" width="56" height="56" fill="#304859"/>
</g>
</svg>
