<svg width="56" height="57" viewBox="0 0 56 57" fill="none" xmlns="http://www.w3.org/2000/svg">
<path d="M28 1.375C42.9808 1.375 55.125 13.5192 55.125 28.5C55.125 43.4808 42.9808 55.625 28 55.625C13.0192 55.625 0.875 43.4808 0.875 28.5C0.875 13.5192 13.0192 1.375 28 1.375ZM36.5312 10.457L28 15.1836L19.4688 10.457L21.0166 6.83789C16.2829 8.35842 12.3357 11.3586 9.57812 15.1455L13.4951 14.7969L15.3379 24.3984L8.2041 31.0566L5.25 28.4795V28.5C5.25 33.389 6.78262 38.042 9.61914 41.9121L10.4922 38.0713L20.1826 39.2598L24.3145 48.1182L20.9258 50.1338C25.5011 51.6247 30.5072 51.6219 35.0742 50.1338L31.6855 48.1182L35.8174 39.2598L45.5078 38.0713L46.3809 41.9121C49.2173 38.042 50.75 33.389 50.75 28.5V28.4795L47.7959 31.0566L40.6621 24.3984L42.5352 14.7969L46.4219 15.1455C43.6639 11.3579 39.7167 8.35799 34.9844 6.83789L36.5312 10.457ZM36.5312 26.1221L33.291 36.1094H22.7393L19.4688 26.1221L28 19.9395L36.5312 26.1221Z" fill="#304859"/>
<mask id="mask0_18106_413" style="mask-type:luminance" maskUnits="userSpaceOnUse" x="0" y="1" width="56" height="55">
<path d="M28 1.375C42.9808 1.375 55.125 13.5192 55.125 28.5C55.125 43.4808 42.9808 55.625 28 55.625C13.0192 55.625 0.875 43.4808 0.875 28.5C0.875 13.5192 13.0192 1.375 28 1.375ZM36.5312 10.457L28 15.1836L19.4688 10.457L21.0166 6.83789C16.2829 8.35842 12.3357 11.3586 9.57812 15.1455L13.4951 14.7969L15.3379 24.3984L8.2041 31.0566L5.25 28.4795V28.5C5.25 33.389 6.78262 38.042 9.61914 41.9121L10.4922 38.0713L20.1826 39.2598L24.3145 48.1182L20.9258 50.1338C25.5011 51.6247 30.5072 51.6219 35.0742 50.1338L31.6855 48.1182L35.8174 39.2598L45.5078 38.0713L46.3809 41.9121C49.2173 38.042 50.75 33.389 50.75 28.5V28.4795L47.7959 31.0566L40.6621 24.3984L42.5352 14.7969L46.4219 15.1455C43.6639 11.3579 39.7167 8.35799 34.9844 6.83789L36.5312 10.457ZM36.5312 26.1221L33.291 36.1094H22.7393L19.4688 26.1221L28 19.9395L36.5312 26.1221Z" fill="white"/>
</mask>
<g mask="url(#mask0_18106_413)">
<rect y="0.5" width="56" height="56" fill="#304859"/>
</g>
</svg>
