<svg width="56" height="57" viewBox="0 0 56 57" fill="none" xmlns="http://www.w3.org/2000/svg">
<path d="M1.18913 35.1264C2.84496 33.367 5.61379 33.283 7.37352 34.9391L14 41.1757V32.4908L9.73384 13.7196C9.19834 11.3634 10.6742 9.01927 13.0304 8.48377C15.3873 7.94849 17.7308 9.42429 18.2662 11.7804L22.0661 28.4999H23.1416L17.9393 5.8556C17.3983 3.50065 18.8687 1.15313 21.2236 0.612165C23.5786 0.0707583 25.926 1.54163 26.467 3.89648L32.1195 28.4999H33.7716L39.0681 7.31379C39.654 4.96966 42.0294 3.54451 44.3736 4.13054C46.7177 4.71657 48.1429 7.09187 47.5568 9.43599L42.7909 28.4999H44.0028L47.368 14.3616C47.9277 12.011 50.2867 10.5588 52.6374 11.1189C54.988 11.6786 56.4398 14.0377 55.88 16.3883L51.9106 33.0644C51.7209 33.8611 51.625 34.6773 51.625 35.4963V40.1012C51.625 41.1117 51.4791 42.1169 51.1919 43.0858L48.3291 52.7421C47.6684 54.9711 45.6204 56.4999 43.2957 56.4999H19.5969C18.2596 56.5 16.9726 55.9896 15.9987 55.073L1.37649 41.3108C-0.383024 39.6548 -0.466805 36.8859 1.18913 35.1264Z" fill="#304859"/>
<mask id="mask0_18106_399" style="mask-type:luminance" maskUnits="userSpaceOnUse" x="0" y="0" width="56" height="57">
<path d="M1.18913 35.1264C2.84496 33.367 5.61379 33.283 7.37352 34.9391L14 41.1757V32.4908L9.73384 13.7196C9.19834 11.3634 10.6742 9.01927 13.0304 8.48377C15.3873 7.94849 17.7308 9.42429 18.2662 11.7804L22.0661 28.4999H23.1416L17.9393 5.8556C17.3983 3.50065 18.8687 1.15313 21.2236 0.612165C23.5786 0.0707583 25.926 1.54163 26.467 3.89648L32.1195 28.4999H33.7716L39.0681 7.31379C39.654 4.96966 42.0294 3.54451 44.3736 4.13054C46.7177 4.71657 48.1429 7.09187 47.5568 9.43599L42.7909 28.4999H44.0028L47.368 14.3616C47.9277 12.011 50.2867 10.5588 52.6374 11.1189C54.988 11.6786 56.4398 14.0377 55.88 16.3883L51.9106 33.0644C51.7209 33.8611 51.625 34.6773 51.625 35.4963V40.1012C51.625 41.1117 51.4791 42.1169 51.1919 43.0858L48.3291 52.7421C47.6684 54.9711 45.6204 56.4999 43.2957 56.4999H19.5969C18.2596 56.5 16.9726 55.9896 15.9987 55.073L1.37649 41.3108C-0.383024 39.6548 -0.466805 36.8859 1.18913 35.1264Z" fill="white"/>
</mask>
<g mask="url(#mask0_18106_399)">
<rect y="0.5" width="56" height="56" fill="#304859"/>
</g>
</svg>
