<svg width="56" height="57" viewBox="0 0 56 57" fill="none" xmlns="http://www.w3.org/2000/svg">
<path d="M47.6868 28.5H42.4348C41.7419 28.5 41.125 29.0373 41.125 29.73C41.125 40.75 32.1758 46 22.75 46V28.5854L37.4722 25.3138C38.0727 25.1804 38.5 24.6477 38.5 24.0326V19.5508C38.5 18.7112 37.7225 18.0874 36.9028 18.2696L22.75 21.4146V18.0853L37.4722 14.8137C38.0727 14.6802 38.5 14.1476 38.5 13.5325V9.05083C38.5 8.21116 37.7225 7.58739 36.9028 7.76961L22.75 10.9146V5.3125C22.75 4.58767 22.1623 4 21.4375 4H15.3125C14.5877 4 14 4.58767 14 5.3125V12.859L8.0278 14.1862C7.42728 14.3196 7.00001 14.8523 7 15.4674V19.9492C7 20.7888 7.77755 21.4126 8.5972 21.2304L14 20.0298V23.359L8.0278 24.6862C7.42728 24.8196 7.00001 25.3523 7 25.9674V30.4492C7 31.2888 7.77755 31.9126 8.5972 31.7304L14 30.5298V51.6875C14 52.4123 14.5877 53 15.3125 53H24.0169C38.6831 53 48.4354 44.4869 48.999 29.8571C49.0276 29.1153 48.4291 28.5 47.6868 28.5Z" fill="#304859"/>
<mask id="mask0_18106_437" style="mask-type:luminance" maskUnits="userSpaceOnUse" x="7" y="4" width="42" height="49">
<path d="M47.6868 28.5H42.4348C41.7419 28.5 41.125 29.0373 41.125 29.73C41.125 40.75 32.1758 46 22.75 46V28.5854L37.4722 25.3138C38.0727 25.1804 38.5 24.6477 38.5 24.0326V19.5508C38.5 18.7112 37.7225 18.0874 36.9028 18.2696L22.75 21.4146V18.0853L37.4722 14.8137C38.0727 14.6802 38.5 14.1476 38.5 13.5325V9.05083C38.5 8.21116 37.7225 7.58739 36.9028 7.76961L22.75 10.9146V5.3125C22.75 4.58767 22.1623 4 21.4375 4H15.3125C14.5877 4 14 4.58767 14 5.3125V12.859L8.0278 14.1862C7.42728 14.3196 7.00001 14.8523 7 15.4674V19.9492C7 20.7888 7.77755 21.4126 8.5972 21.2304L14 20.0298V23.359L8.0278 24.6862C7.42728 24.8196 7.00001 25.3523 7 25.9674V30.4492C7 31.2888 7.77755 31.9126 8.5972 31.7304L14 30.5298V51.6875C14 52.4123 14.5877 53 15.3125 53H24.0169C38.6831 53 48.4354 44.4869 48.999 29.8571C49.0276 29.1153 48.4291 28.5 47.6868 28.5Z" fill="white"/>
</mask>
<g mask="url(#mask0_18106_437)">
<rect y="0.5" width="56" height="56" fill="#304859"/>
</g>
</svg>
