<svg width="56" height="57" viewBox="0 0 56 57" fill="none" xmlns="http://www.w3.org/2000/svg">
<path d="M30.5156 0.5C32.2301 0.50028 33.9409 0.656874 35.627 0.967773C40.4417 1.85709 41.5081 8.28158 37.2705 10.6934C32.7452 13.2685 29.8945 18.0669 29.8945 23.3633C29.8948 32.4985 38.1994 39.3833 47.2061 37.668C51.9844 36.7583 55.3561 42.3243 52.2646 46.1338C47.0297 52.5837 39.1296 56.5 30.5156 56.5C15.0474 56.5 2.51562 43.9613 2.51562 28.5C2.51562 13.0316 15.0544 0.5 30.5156 0.5ZM30.5156 5.75C17.9512 5.75 7.76562 15.9355 7.76562 28.5C7.76562 41.0645 17.9512 51.25 30.5156 51.25C37.6503 51.25 44.0164 47.9645 48.1875 42.8252C35.9803 45.1498 24.6448 35.8151 24.6445 23.3633C24.6445 15.9792 28.6845 9.53932 34.6738 6.13086C33.3256 5.88181 31.9359 5.75 30.5156 5.75Z" fill="#304859"/>
<mask id="mask0_18106_404" style="mask-type:luminance" maskUnits="userSpaceOnUse" x="2" y="0" width="52" height="57">
<path d="M30.5156 0.5C32.2301 0.50028 33.9409 0.656874 35.627 0.967773C40.4417 1.85709 41.5081 8.28158 37.2705 10.6934C32.7452 13.2685 29.8945 18.0669 29.8945 23.3633C29.8948 32.4985 38.1994 39.3833 47.2061 37.668C51.9844 36.7583 55.3561 42.3243 52.2646 46.1338C47.0297 52.5837 39.1296 56.5 30.5156 56.5C15.0474 56.5 2.51562 43.9613 2.51562 28.5C2.51562 13.0316 15.0544 0.5 30.5156 0.5ZM30.5156 5.75C17.9512 5.75 7.76562 15.9355 7.76562 28.5C7.76562 41.0645 17.9512 51.25 30.5156 51.25C37.6503 51.25 44.0164 47.9645 48.1875 42.8252C35.9803 45.1498 24.6448 35.8151 24.6445 23.3633C24.6445 15.9792 28.6845 9.53932 34.6738 6.13086C33.3256 5.88181 31.9359 5.75 30.5156 5.75Z" fill="white"/>
</mask>
<g mask="url(#mask0_18106_404)">
<rect y="0.5" width="56" height="56" fill="#304859"/>
</g>
</svg>
