<svg width="24" height="24" viewBox="0 0 24 24" fill="none" xmlns="http://www.w3.org/2000/svg">
<g filter="url(#filter0_d_4_857)">
<path d="M7.90366 15.8932C7.62366 15.5332 7.27366 14.8032 6.66366 13.8932C6.31366 13.3932 5.45366 12.4432 5.19366 11.9532C5.00623 11.6554 4.95185 11.2929 5.04366 10.9532C5.20062 10.3074 5.81322 9.87903 6.47366 9.95321C6.98446 10.0558 7.45388 10.3062 7.82366 10.6732C8.08184 10.9164 8.31933 11.1806 8.53366 11.4632C8.69366 11.6632 8.73366 11.7432 8.91366 11.9732C9.09366 12.2032 9.21366 12.4332 9.12366 12.0932C9.05366 11.5932 8.93366 10.7532 8.76366 10.0032C8.63366 9.43321 8.60366 9.34321 8.48366 8.91321C8.36366 8.48321 8.29366 8.12321 8.16366 7.63321C8.04483 7.15178 7.95137 6.66444 7.88366 6.17321C7.75761 5.54491 7.84932 4.89242 8.14366 4.32321C8.49305 3.99458 9.00559 3.90784 9.44366 4.10321C9.88426 4.42855 10.2128 4.88286 10.3837 5.40321C10.6457 6.0436 10.8206 6.71627 10.9037 7.40321C11.0637 8.40321 11.3737 9.86321 11.3837 10.1632C11.3837 9.79321 11.3137 9.01321 11.3837 8.66321C11.453 8.29833 11.7066 7.99552 12.0537 7.86321C12.3515 7.77183 12.6665 7.75129 12.9737 7.80321C13.2837 7.86802 13.5583 8.04635 13.7437 8.30321C13.9753 8.8866 14.1039 9.50581 14.1237 10.1332C14.1504 9.5838 14.2445 9.03974 14.4037 8.51321C14.5708 8.27776 14.8148 8.108 15.0937 8.03321C15.4243 7.97276 15.7631 7.97276 16.0937 8.03321C16.3648 8.12384 16.6019 8.29472 16.7737 8.52321C16.9854 9.05355 17.1136 9.61355 17.1537 10.1832C17.1537 10.3232 17.2237 9.79321 17.4437 9.44321C17.558 9.10381 17.8447 8.85118 18.1958 8.78048C18.5469 8.70979 18.909 8.83178 19.1458 9.10048C19.3826 9.36919 19.458 9.74381 19.3437 10.0832C19.3437 10.7332 19.3437 10.7032 19.3437 11.1432C19.3437 11.5832 19.3437 11.9732 19.3437 12.3432C19.3072 12.9284 19.227 13.51 19.1037 14.0832C18.9296 14.5903 18.6874 15.0714 18.3837 15.5132C17.8981 16.0532 17.4969 16.6634 17.1937 17.3232C17.1184 17.651 17.0848 17.987 17.0937 18.3232C17.0927 18.6338 17.133 18.9432 17.2137 19.2432C16.8048 19.2864 16.3925 19.2864 15.9837 19.2432C15.5937 19.1832 15.1137 18.4032 14.9837 18.1632C14.9193 18.0343 14.7877 17.9529 14.6437 17.9529C14.4996 17.9529 14.368 18.0343 14.3037 18.1632C14.0837 18.5432 13.5937 19.2332 13.2537 19.2732C12.5837 19.3532 11.2037 19.2732 10.1137 19.2732C10.1137 19.2732 10.2937 18.2732 9.88366 17.9132C9.47366 17.5532 9.05366 17.1332 8.74366 16.8532L7.90366 15.8932Z" fill="white"/>
<path fill-rule="evenodd" clip-rule="evenodd" d="M7.90366 15.8932C7.62366 15.5332 7.27366 14.8032 6.66366 13.8932C6.31366 13.3932 5.45366 12.4432 5.19366 11.9532C5.00623 11.6554 4.95185 11.2929 5.04366 10.9532C5.20062 10.3074 5.81322 9.87903 6.47366 9.95321C6.98446 10.0558 7.45388 10.3062 7.82366 10.6732C8.08184 10.9164 8.31933 11.1806 8.53366 11.4632C8.69366 11.6632 8.73366 11.7432 8.91366 11.9732C9.09366 12.2032 9.21366 12.4332 9.12366 12.0932C9.05366 11.5932 8.93366 10.7532 8.76366 10.0032C8.63366 9.43321 8.60366 9.34321 8.48366 8.91321C8.36366 8.48321 8.29366 8.12321 8.16366 7.63321C8.04483 7.15178 7.95137 6.66444 7.88366 6.17321C7.75761 5.54491 7.84932 4.89242 8.14366 4.32321C8.49305 3.99458 9.00559 3.90784 9.44366 4.10321C9.88426 4.42855 10.2128 4.88286 10.3837 5.40321C10.6457 6.0436 10.8206 6.71627 10.9037 7.40321C11.0637 8.40321 11.3737 9.86321 11.3837 10.1632C11.3837 9.79321 11.3137 9.01321 11.3837 8.66321C11.453 8.29833 11.7066 7.99552 12.0537 7.86321C12.3515 7.77183 12.6665 7.75129 12.9737 7.80321C13.2837 7.86802 13.5583 8.04635 13.7437 8.30321C13.9753 8.8866 14.1039 9.50581 14.1237 10.1332C14.1504 9.5838 14.2445 9.03974 14.4037 8.51321C14.5708 8.27776 14.8148 8.108 15.0937 8.03321C15.4243 7.97276 15.7631 7.97276 16.0937 8.03321C16.3648 8.12384 16.6019 8.29472 16.7737 8.52321C16.9854 9.05355 17.1136 9.61355 17.1537 10.1832C17.1537 10.3232 17.2237 9.79321 17.4437 9.44321C17.558 9.10381 17.8447 8.85118 18.1958 8.78048C18.5469 8.70979 18.909 8.83178 19.1458 9.10048C19.3826 9.36919 19.458 9.74381 19.3437 10.0832C19.3437 10.7332 19.3437 10.7032 19.3437 11.1432C19.3437 11.5832 19.3437 11.9732 19.3437 12.3432C19.3072 12.9284 19.227 13.51 19.1037 14.0832C18.9296 14.5903 18.6874 15.0714 18.3837 15.5132C17.8981 16.0532 17.4969 16.6634 17.1937 17.3232C17.1184 17.651 17.0848 17.987 17.0937 18.3232C17.0927 18.6338 17.133 18.9432 17.2137 19.2432C16.8048 19.2864 16.3925 19.2864 15.9837 19.2432C15.5937 19.1832 15.1137 18.4032 14.9837 18.1632C14.9193 18.0343 14.7877 17.9529 14.6437 17.9529C14.4996 17.9529 14.368 18.0343 14.3037 18.1632C14.0837 18.5432 13.5937 19.2332 13.2537 19.2732C12.5837 19.3532 11.2037 19.2732 10.1137 19.2732C10.1137 19.2732 10.2937 18.2732 9.88366 17.9132C9.47366 17.5532 9.05366 17.1332 8.74366 16.8532L7.90366 15.8932Z" stroke="black" stroke-width="0.75" stroke-linecap="round" stroke-linejoin="round"/>
<path d="M16.3835 16.4391V12.9873C16.3835 12.7807 16.2157 12.6132 16.0085 12.6132C15.8014 12.6132 15.6335 12.7807 15.6335 12.9873V16.4391C15.6335 16.6457 15.8014 16.8132 16.0085 16.8132C16.2157 16.8132 16.3835 16.6457 16.3835 16.4391Z" fill="black"/>
<path d="M14.4035 16.4378L14.3835 12.9843C14.3823 12.7782 14.2135 12.612 14.0064 12.6132C13.7993 12.6144 13.6324 12.7825 13.6336 12.9886L13.6536 16.4421C13.6547 16.6483 13.8236 16.8144 14.0307 16.8132C14.2378 16.812 14.4047 16.644 14.4035 16.4378Z" fill="black"/>
<path d="M11.6336 12.9922L11.6536 16.4386C11.6548 16.6467 11.8236 16.8144 12.0307 16.8132C12.2378 16.812 12.4047 16.6423 12.4035 16.4342L12.3835 12.9878C12.3823 12.7797 12.2135 12.612 12.0064 12.6132C11.7993 12.6144 11.6323 12.7841 11.6336 12.9922Z" fill="black"/>
</g>
<defs>
<filter id="filter0_d_4_857" x="3.825" y="3.62499" width="16.7462" height="17.8588" filterUnits="userSpaceOnUse" color-interpolation-filters="sRGB">
<feFlood flood-opacity="0" result="BackgroundImageFix"/>
<feColorMatrix in="SourceAlpha" type="matrix" values="0 0 0 0 0 0 0 0 0 0 0 0 0 0 0 0 0 0 127 0" result="hardAlpha"/>
<feOffset dy="1"/>
<feGaussianBlur stdDeviation="0.4"/>
<feColorMatrix type="matrix" values="0 0 0 0 0 0 0 0 0 0 0 0 0 0 0 0 0 0 0.5 0"/>
<feBlend mode="normal" in2="BackgroundImageFix" result="effect1_dropShadow_4_857"/>
<feBlend mode="normal" in="SourceGraphic" in2="effect1_dropShadow_4_857" result="shape"/>
</filter>
</defs>
</svg>
