<svg width="56" height="57" viewBox="0 0 56 57" fill="none" xmlns="http://www.w3.org/2000/svg">
<path d="M52.1518 33.4918C52.4735 32.9295 52.5771 32.2685 52.4428 31.6348C52.1448 30.2166 50.7651 29.3111 49.3613 29.6122L39.8011 32.3516L32.375 28.5L39.8011 24.6484L49.3613 27.3878C50.7651 27.6889 52.1448 26.7834 52.4428 25.3652C52.7409 23.947 51.8444 22.5534 50.4407 22.2523L45.2479 21.4717L51.0532 18.0859C52.296 17.361 52.7219 15.7555 52.0043 14.5C51.2867 13.2445 49.6975 12.8143 48.4547 13.5391L42.6494 16.925L44.5767 11.9917C45.0204 10.6129 44.2739 9.13198 42.909 8.68366C41.5443 8.23533 40.0781 8.98958 39.6344 10.3682L37.2027 20.1015L30.5987 23.9532V16.25L37.7272 9.25602C38.6873 8.17845 38.6008 6.51869 37.534 5.54886C36.4673 4.57903 34.8243 4.66642 33.8643 5.74398L30.5987 9.89663V3.125C30.5987 1.67523 29.4352 0.5 28.0001 0.5C26.565 0.5 25.4016 1.67523 25.4016 3.125V9.89663L22.136 5.74398C21.1758 4.66642 19.533 4.57892 18.4662 5.54886C17.3995 6.51869 17.3131 8.17845 18.2731 9.25602L25.4015 16.25V23.9534L18.7974 20.1017L16.3658 10.3685C15.9221 8.9898 14.4559 8.23555 13.0911 8.68388C11.7263 9.1322 10.9797 10.6132 11.4235 11.9919L13.3507 16.9252L7.54537 13.5394C6.30254 12.8145 4.71332 13.2447 3.99571 14.5002C3.2781 15.7557 3.70401 17.3611 4.94683 18.0861L10.7521 21.4719L5.55933 22.2525C4.15551 22.5537 3.25907 23.9473 3.55723 25.3654C3.85527 26.7835 5.23493 27.6891 6.63876 27.388L16.1989 24.6486L23.625 28.5L16.1989 32.3516L6.63887 29.6123C5.23504 29.3112 3.85538 30.2167 3.55733 31.6349C3.25929 33.0532 4.15562 34.4467 5.55944 34.7478L10.7522 35.5284L4.94694 38.9142C3.70412 39.6391 3.27832 41.2445 3.99582 42.5C4.71332 43.7555 6.30265 44.1857 7.54548 43.4609L13.3508 40.075L11.4236 45.0083C11.1949 45.7162 11.2752 46.4876 11.6447 47.1332C11.9544 47.675 12.4559 48.1077 13.0911 48.3162C14.4559 48.7646 15.9221 48.0103 16.3658 46.6316L18.7974 36.8984L25.4015 33.0467V40.75L18.273 47.744C17.3129 48.8215 17.3994 50.4813 18.4661 51.4511C19.533 52.4211 21.1758 52.3336 22.1359 51.256L25.4015 47.1034V53.875C25.4015 55.3248 26.5649 56.5 28 56.5C29.4351 56.5 30.5986 55.3248 30.5986 53.875V47.1034L33.8642 51.256C34.3542 51.809 35.0577 52.1254 35.7965 52.125C36.4395 52.1253 37.0593 51.8849 37.5339 51.4511C38.6006 50.4813 38.6872 48.8215 37.7271 47.744L30.5986 40.75V33.0466L37.2026 36.8983L39.6342 46.6315C40.078 48.0102 41.5441 48.7645 42.9089 48.3161C44.2738 47.8678 45.0203 46.3867 44.5766 45.0081L42.6493 40.0748L48.4546 43.4606C49.6974 44.1855 51.2866 43.7553 52.0042 42.4998C52.7218 41.2443 52.2959 39.6389 51.0531 38.9139L45.2478 35.5281L50.4406 34.7475C51.1909 34.5868 51.7962 34.1139 52.1518 33.4918Z" fill="#304859"/>
<mask id="mask0_18106_442" style="mask-type:luminance" maskUnits="userSpaceOnUse" x="3" y="0" width="50" height="57">
<path d="M52.1518 33.4918C52.4735 32.9295 52.5771 32.2685 52.4428 31.6348C52.1448 30.2166 50.7651 29.3111 49.3613 29.6122L39.8011 32.3516L32.375 28.5L39.8011 24.6484L49.3613 27.3878C50.7651 27.6889 52.1448 26.7834 52.4428 25.3652C52.7409 23.947 51.8444 22.5534 50.4407 22.2523L45.2479 21.4717L51.0532 18.0859C52.296 17.361 52.7219 15.7555 52.0043 14.5C51.2867 13.2445 49.6975 12.8143 48.4547 13.5391L42.6494 16.925L44.5767 11.9917C45.0204 10.6129 44.2739 9.13198 42.909 8.68366C41.5443 8.23533 40.0781 8.98958 39.6344 10.3682L37.2027 20.1015L30.5987 23.9532V16.25L37.7272 9.25602C38.6873 8.17845 38.6008 6.51869 37.534 5.54886C36.4673 4.57903 34.8243 4.66642 33.8643 5.74398L30.5987 9.89663V3.125C30.5987 1.67523 29.4352 0.5 28.0001 0.5C26.565 0.5 25.4016 1.67523 25.4016 3.125V9.89663L22.136 5.74398C21.1758 4.66642 19.533 4.57892 18.4662 5.54886C17.3995 6.51869 17.3131 8.17845 18.2731 9.25602L25.4015 16.25V23.9534L18.7974 20.1017L16.3658 10.3685C15.9221 8.9898 14.4559 8.23555 13.0911 8.68388C11.7263 9.1322 10.9797 10.6132 11.4235 11.9919L13.3507 16.9252L7.54537 13.5394C6.30254 12.8145 4.71332 13.2447 3.99571 14.5002C3.2781 15.7557 3.70401 17.3611 4.94683 18.0861L10.7521 21.4719L5.55933 22.2525C4.15551 22.5537 3.25907 23.9473 3.55723 25.3654C3.85527 26.7835 5.23493 27.6891 6.63876 27.388L16.1989 24.6486L23.625 28.5L16.1989 32.3516L6.63887 29.6123C5.23504 29.3112 3.85538 30.2167 3.55733 31.6349C3.25929 33.0532 4.15562 34.4467 5.55944 34.7478L10.7522 35.5284L4.94694 38.9142C3.70412 39.6391 3.27832 41.2445 3.99582 42.5C4.71332 43.7555 6.30265 44.1857 7.54548 43.4609L13.3508 40.075L11.4236 45.0083C11.1949 45.7162 11.2752 46.4876 11.6447 47.1332C11.9544 47.675 12.4559 48.1077 13.0911 48.3162C14.4559 48.7646 15.9221 48.0103 16.3658 46.6316L18.7974 36.8984L25.4015 33.0467V40.75L18.273 47.744C17.3129 48.8215 17.3994 50.4813 18.4661 51.4511C19.533 52.4211 21.1758 52.3336 22.1359 51.256L25.4015 47.1034V53.875C25.4015 55.3248 26.5649 56.5 28 56.5C29.4351 56.5 30.5986 55.3248 30.5986 53.875V47.1034L33.8642 51.256C34.3542 51.809 35.0577 52.1254 35.7965 52.125C36.4395 52.1253 37.0593 51.8849 37.5339 51.4511C38.6006 50.4813 38.6872 48.8215 37.7271 47.744L30.5986 40.75V33.0466L37.2026 36.8983L39.6342 46.6315C40.078 48.0102 41.5441 48.7645 42.9089 48.3161C44.2738 47.8678 45.0203 46.3867 44.5766 45.0081L42.6493 40.0748L48.4546 43.4606C49.6974 44.1855 51.2866 43.7553 52.0042 42.4998C52.7218 41.2443 52.2959 39.6389 51.0531 38.9139L45.2478 35.5281L50.4406 34.7475C51.1909 34.5868 51.7962 34.1139 52.1518 33.4918Z" fill="white"/>
</mask>
<g mask="url(#mask0_18106_442)">
<rect y="0.5" width="56" height="56" fill="#304859"/>
</g>
</svg>
