<svg width="56" height="57" viewBox="0 0 56 57" fill="none" xmlns="http://www.w3.org/2000/svg">
<path d="M25.9941 1.88285C26.7485 0.0390193 29.3599 0.0390799 30.1143 1.88285L32.9053 8.70707C33.3661 9.83374 34.7287 10.2764 35.7637 9.63578L42.0322 5.7559C43.7265 4.70721 45.8401 6.24238 45.3662 8.17777L43.6123 15.3389C43.3229 16.5211 44.1651 17.6804 45.3789 17.7705L52.7314 18.3155C54.7185 18.4629 55.5257 20.9472 54.0049 22.2344L48.377 26.9971C47.448 27.7835 47.4479 29.2166 48.377 30.003L54.0049 34.7657C55.5259 36.0529 54.7186 38.5372 52.7314 38.6846L45.3789 39.2295C44.1652 39.3197 43.3229 40.479 43.6123 41.6612L45.3662 48.8223C45.84 50.7577 43.7263 52.2929 42.0322 51.2442L35.7637 47.3643C34.7287 46.7236 33.366 47.1662 32.9053 48.293L30.1143 55.1172C29.3598 56.961 26.7485 56.9611 25.9941 55.1172L23.2031 48.293C22.7423 47.1663 21.3797 46.7237 20.3447 47.3643L14.0762 51.2442C12.382 52.2929 10.2692 50.7577 10.7432 48.8223L12.4961 41.6612C12.7856 40.4788 11.9434 39.3195 10.7295 39.2295L3.37696 38.6846C1.38996 38.5372 0.58272 36.0529 2.10352 34.7657L7.73145 30.003C8.66059 29.2166 8.66059 27.7835 7.73145 26.9971L2.10352 22.2344C0.582551 20.9472 1.38983 18.4629 3.37696 18.3155L10.7295 17.7705C11.9434 17.6805 12.7855 16.5212 12.4961 15.3389L10.7432 8.17777C10.2694 6.24238 12.3821 4.70721 14.0762 5.7559L20.3447 9.63578C21.3797 10.2765 22.7423 9.83385 23.2031 8.70707L25.9941 1.88285ZM28.0547 13.625C19.8526 13.625 13.1797 20.2979 13.1797 28.5C13.1797 36.7022 19.8526 43.375 28.0547 43.375C36.2565 43.3748 42.9297 36.702 42.9297 28.5C42.9297 20.298 36.2566 13.6252 28.0547 13.625ZM28.0547 17.125C34.3267 17.1252 39.4297 22.2279 39.4297 28.5C39.4297 34.7721 34.3267 39.8748 28.0547 39.875C21.7825 39.875 16.6797 34.7722 16.6797 28.5C16.6797 22.2278 21.7825 17.125 28.0547 17.125Z" fill="#304859"/>
<mask id="mask0_18106_388" style="mask-type:luminance" maskUnits="userSpaceOnUse" x="1" y="0" width="54" height="57">
<path d="M25.9941 1.88285C26.7485 0.0390193 29.3599 0.0390799 30.1143 1.88285L32.9053 8.70707C33.3661 9.83374 34.7287 10.2764 35.7637 9.63578L42.0322 5.7559C43.7265 4.70721 45.8401 6.24238 45.3662 8.17777L43.6123 15.3389C43.3229 16.5211 44.1651 17.6804 45.3789 17.7705L52.7314 18.3155C54.7185 18.4629 55.5257 20.9472 54.0049 22.2344L48.377 26.9971C47.448 27.7835 47.4479 29.2166 48.377 30.003L54.0049 34.7657C55.5259 36.0529 54.7186 38.5372 52.7314 38.6846L45.3789 39.2295C44.1652 39.3197 43.3229 40.479 43.6123 41.6612L45.3662 48.8223C45.84 50.7577 43.7263 52.2929 42.0322 51.2442L35.7637 47.3643C34.7287 46.7236 33.366 47.1662 32.9053 48.293L30.1143 55.1172C29.3598 56.961 26.7485 56.9611 25.9941 55.1172L23.2031 48.293C22.7423 47.1663 21.3797 46.7237 20.3447 47.3643L14.0762 51.2442C12.382 52.2929 10.2692 50.7577 10.7432 48.8223L12.4961 41.6612C12.7856 40.4788 11.9434 39.3195 10.7295 39.2295L3.37696 38.6846C1.38996 38.5372 0.58272 36.0529 2.10352 34.7657L7.73145 30.003C8.66059 29.2166 8.66059 27.7835 7.73145 26.9971L2.10352 22.2344C0.582551 20.9472 1.38983 18.4629 3.37696 18.3155L10.7295 17.7705C11.9434 17.6805 12.7855 16.5212 12.4961 15.3389L10.7432 8.17777C10.2694 6.24238 12.3821 4.70721 14.0762 5.7559L20.3447 9.63578C21.3797 10.2765 22.7423 9.83385 23.2031 8.70707L25.9941 1.88285ZM28.0547 13.625C19.8526 13.625 13.1797 20.2979 13.1797 28.5C13.1797 36.7022 19.8526 43.375 28.0547 43.375C36.2565 43.3748 42.9297 36.702 42.9297 28.5C42.9297 20.298 36.2566 13.6252 28.0547 13.625ZM28.0547 17.125C34.3267 17.1252 39.4297 22.2279 39.4297 28.5C39.4297 34.7721 34.3267 39.8748 28.0547 39.875C21.7825 39.875 16.6797 34.7722 16.6797 28.5C16.6797 22.2278 21.7825 17.125 28.0547 17.125Z" fill="white"/>
</mask>
<g mask="url(#mask0_18106_388)">
<rect y="0.5" width="56" height="56" fill="#304859"/>
</g>
</svg>
